<?xml version="1.0" encoding="UTF-8"?><svg id="a" xmlns="http://www.w3.org/2000/svg" width="512" height="512" xmlns:xlink="http://www.w3.org/1999/xlink" viewBox="0 0 512 512"><defs><radialGradient id="b" cx="256" cy="256" fx="256" fy="256" r="256" gradientTransform="translate(0 512) rotate(-90)" gradientUnits="userSpaceOnUse"><stop offset=".56" stop-color="#0077db"/><stop offset="1" stop-color="#00a3f7"/></radialGradient></defs><path d="M127.95,34.28L0,0l34.28,127.95C12.48,165.62,0,209.35,0,256s12.48,90.38,34.28,128.05L0,512l127.95-34.28c37.67,21.8,81.4,34.28,128.05,34.28s90.38-12.48,128.05-34.28l127.95,34.28-34.28-127.95c21.8-37.67,34.28-81.4,34.28-128.05s-12.48-90.38-34.28-128.05L512,0l-127.95,34.28C346.38,12.48,302.65,0,256,0s-90.38,12.48-128.05,34.28Z" fill="url(#b)"/><path d="M418.17,228.12c.69-3.8.69-6.92-.69-10.72-1.38-3.8-3.46-6.22-5.88-8.64s-5.88-3.8-10.37-4.5l-92.32-8.3-35.62-84.72c-1.38-4.15-4.15-6.92-7.26-8.64-3.11-1.73-6.57-2.77-10.03-2.77s-6.92.69-10.03,2.77c-3.11,2.07-5.88,4.84-7.26,8.64l-35.61,84.72-92.33,8.3c-4.15.69-7.61,2.07-10.37,4.5s-4.5,5.19-5.88,8.64-1.38,6.92-.69,10.72c.69,3.8,2.77,7.26,5.88,10.03l69.85,60.51-20.75,89.91c-1.04,4.5-.35,8.3,1.04,11.41,1.73,3.46,3.81,5.88,6.57,8.3,2.77,2.42,6.22,3.46,10.03,3.8,3.8.35,7.61-.35,11.06-2.77l78.49-47.51,78.49,47.51c3.46,2.07,7.26,3.11,11.07,2.77,3.8-.35,7.26-1.73,10.03-3.8s4.84-4.84,6.57-8.3c1.73-3.46,2.07-7.26,1.04-11.41l-20.75-89.91,69.85-60.51c3.11-3.11,5.19-6.22,5.88-10.03Z" fill="#fff"/></svg>