<?xml version="1.0" encoding="UTF-8"?><svg id="a" xmlns="http://www.w3.org/2000/svg" width="512" height="512" xmlns:xlink="http://www.w3.org/1999/xlink" viewBox="0 0 512 512"><defs><radialGradient id="b" cx="268" cy="256" fx="268" fy="256" r="256" gradientTransform="translate(512 524) rotate(-90) scale(1 -1)" gradientUnits="userSpaceOnUse"><stop offset=".56" stop-color="#0077db"/><stop offset="1" stop-color="#00a3f7"/></radialGradient></defs><path d="M127.95,34.28L0,0l34.28,127.95C12.48,165.62,0,209.35,0,256s12.48,90.38,34.28,128.05L0,512l127.95-34.28c37.67,21.8,81.4,34.28,128.05,34.28s90.38-12.48,128.05-34.28l127.95,34.28-34.28-127.95c21.8-37.67,34.28-81.4,34.28-128.05s-12.48-90.38-34.28-128.05L512,0l-127.95,34.28C346.38,12.48,302.65,0,256,0s-90.38,12.48-128.05,34.28Z" fill="url(#b)"/><path d="M397.76,130.53c-3.13-3.13-7-4.7-11.6-4.69-4.6.01-8.46,1.57-11.58,4.69-3.12,3.11-4.69,6.97-4.69,11.58v244.05h-211.51c-4.59.02-8.45-1.53-11.58-4.67-3.13-3.13-4.7-7-4.69-11.6s1.57-8.46,4.69-11.58c3.11-3.12,6.97-4.69,11.58-4.69h146.43c8.96.01,16.62-3.17,22.99-9.55,6.37-6.38,9.55-14.04,9.55-22.99V125.84c.01-8.94-3.17-16.6-9.55-22.97-6.38-6.38-14.04-9.57-22.99-9.57h-146.43c-13.56,0-25.08,4.75-34.57,14.24-9.49,9.49-14.24,21.02-14.24,34.57v227.78c0,13.56,4.75,25.08,14.24,34.57s21.02,14.24,34.57,14.24h211.51c8.96.01,16.62-3.17,22.99-9.55,6.37-6.38,9.55-14.04,9.55-22.99v-244.05c.02-4.59-1.53-8.45-4.67-11.58ZM199.56,141h49.85l52.45,168.47h-41.04l-12.95-43.26h-48.44l-11.89,43.26h-39.39l51.42-168.47Z" fill="#fff"/><path d="M231.73,202.04c-2.89-9.96-5.88-22.59-8.47-32.44h-.53c-2.47,9.91-5.01,22.7-7.71,32.48l-10.08,35.76h37.27l-10.49-35.8Z" fill="#fff"/></svg>