<?xml version="1.0" encoding="UTF-8"?><svg id="a" xmlns="http://www.w3.org/2000/svg" width="512" height="512" xmlns:xlink="http://www.w3.org/1999/xlink" viewBox="0 0 512 512"><defs><radialGradient id="b" cx="256" cy="256" fx="256" fy="256" r="256" gradientTransform="translate(0 512) rotate(-90)" gradientUnits="userSpaceOnUse"><stop offset=".56" stop-color="#0077db"/><stop offset="1" stop-color="#00a3f7"/></radialGradient></defs><path d="M127.95,34.28L0,0l34.28,127.95C12.48,165.62,0,209.35,0,256s12.48,90.38,34.28,128.05L0,512l127.95-34.28c37.67,21.8,81.4,34.28,128.05,34.28s90.38-12.48,128.05-34.28l127.95,34.28-34.28-127.95c21.8-37.67,34.28-81.4,34.28-128.05s-12.48-90.38-34.28-128.05L512,0l-127.95,34.28C346.38,12.48,302.65,0,256,0s-90.38,12.48-128.05,34.28Z" fill="url(#b)"/><g id="c"><path d="M290.28,395.73c-30.5,0-52.28-12.64-64.82-37.6-16.33,24.96-36.99,37.6-61.48,37.6-29.49,0-61.24-14.08-61.24-45,0-22.16,17.22-40.19,38.38-40.19,18.03,0,27.56,9.32,27.56,26.96,0,14.3-6,25.03-17.87,32.01,4.41,1.17,9.06,1.78,13.77,1.78,24.32,0,40.92-18.81,50.74-57.51,21.38-81.85,31.77-127.4,31.77-139.28,0-30.29-14.82-33.79-25.97-33.79-45.91,0-67.89,55.83-73.61,73.22-1.6,6.88-6.67,10.98-13.6,10.98-7.84,0-12.52-4.46-12.52-11.92,0-11.98,8.27-29.75,25.28-54.32,20.02-28.15,45.46-42.41,75.65-42.41s51.13,12.68,64.64,37.71c15.85-25.03,36.57-37.71,61.67-37.71,30.18,0,60.64,13.91,60.64,45,0,21.78-17.3,40.19-37.78,40.19-18.16,0-28.16-9.57-28.16-26.96,0-14.75,6.04-25.53,17.99-32.14-4.27-1.09-8.75-1.65-13.29-1.65-24.62,0-42.01,21.37-53.14,65.32l-20.45,81.19c-7.86,32.17-9.52,45.42-9.52,50.87,0,22.64,8.44,33.19,26.57,33.19,35.35,0,62.15-36.81,73.03-73.28l.03-.11c2.39-7.17,6.95-10.81,13.54-10.81,7.84,0,12.52,4.46,12.52,11.92,0,11.98-8.27,29.75-25.28,54.32-20.02,28.15-45.26,42.41-75.05,42.41Z" fill="#fff"/><path d="M348.62,119.77c30.07,0,57.14,13.83,57.14,41.5,0,19.25-15.04,36.69-34.28,36.69-16.24,0-24.66-7.82-24.66-23.46s7.82-27.07,24.06-32.48c-6.62-3.01-14.43-4.81-22.86-4.81-26.46,0-45.11,22.86-56.54,67.96l-20.45,81.2c-6.62,27.07-9.62,43.91-9.62,51.72,0,24.66,10.22,36.69,30.07,36.69,39.09,0,66.16-41.5,76.38-75.78,1.8-5.41,4.81-8.42,10.22-8.42,6.01,0,9.02,3.01,9.02,8.42,0,11.43-8.42,28.87-24.66,52.33-19.25,27.07-43.3,40.9-72.17,40.9-31.28,0-52.93-13.83-64.36-41.5-16.24,27.67-36.69,41.5-61.95,41.5-29.47,0-57.74-13.83-57.74-41.5,0-19.85,15.04-36.69,34.88-36.69,16.24,0,24.06,7.82,24.06,23.46s-7.82,26.46-23.46,32.48c6.62,3.01,14.43,4.81,22.86,4.81,25.86,0,43.91-19.85,54.13-60.15,21.05-80.59,31.88-127.51,31.88-140.14,0-24.66-9.62-37.29-29.47-37.29-40.3,0-65.56,40.9-76.99,75.78-1.2,5.41-4.81,8.42-10.22,8.42-6.01,0-9.02-3.01-9.02-8.42,0-11.43,8.42-28.87,24.66-52.33,19.25-27.07,43.3-40.9,72.78-40.9s51.72,13.83,64.36,41.5c15.64-27.67,36.09-41.5,61.95-41.5M348.62,112.77c-24.74,0-45.36,11.62-61.46,34.58-14.26-22.96-36.02-34.58-64.85-34.58-31.39,0-57.79,14.75-78.48,43.84l-.03.04-.03.04c-17.67,25.53-25.9,43.42-25.9,56.31,0,9.37,6.29,15.42,16.02,15.42,8.49,0,14.96-5.17,16.97-13.53,5.6-16.98,26.8-70.67,70.24-70.67,10.46,0,22.47,3.44,22.47,30.29,0,17.2-23.82,108.4-31.65,138.37-9.38,36.97-24.87,54.91-47.36,54.91-1.73,0-3.44-.09-5.14-.26,8.39-7.46,12.74-17.62,12.74-30.03,0-19.64-11.03-30.46-31.06-30.46-11.45,0-22.11,4.66-30,13.13-7.66,8.21-11.88,19.07-11.88,30.56,0,15.36,7.27,28.16,21.03,37.01,11.51,7.41,27.04,11.49,43.71,11.49,24.14,0,44.67-11.57,61.15-34.43,5.72,9.63,13,17.32,21.75,22.94,11.85,7.62,26.45,11.49,43.41,11.49,30.99,0,57.19-14.75,77.88-43.84l.03-.04.03-.04c17.67-25.53,25.9-43.42,25.9-56.31,0-9.37-6.29-15.42-16.02-15.42-5.69,0-13.23,2.29-16.87,13.21l-.04.11-.03.11c-5.37,18-14.81,35.54-25.91,48.12-13.27,15.04-27.99,22.67-43.77,22.67-10.74,0-23.07-3.37-23.07-29.69,0-5.25,1.63-18.2,9.42-50.06l20.44-81.15c5.45-21.5,12.59-37.71,21.23-48.14,8.09-9.78,17.42-14.53,28.51-14.53,1.46,0,2.91.06,4.35.19-8.27,7.28-12.56,17.45-12.56,30.1,0,19.36,11.54,30.46,31.66,30.46,11.16,0,21.65-4.76,29.53-13.41,7.47-8.2,11.75-19.23,11.75-30.28,0-15.4-7.07-28.18-20.45-36.98-11.31-7.43-26.83-11.53-43.69-11.53h0Z" fill="#fff"/></g></svg>