<?xml version="1.0" encoding="UTF-8"?><svg id="a" xmlns="http://www.w3.org/2000/svg" width="512" height="512" xmlns:xlink="http://www.w3.org/1999/xlink" viewBox="0 0 512 512"><defs><radialGradient id="b" cx="268" cy="256" fx="268" fy="256" r="256" gradientTransform="translate(512 524) rotate(-90) scale(1 -1)" gradientUnits="userSpaceOnUse"><stop offset=".56" stop-color="#0077db"/><stop offset="1" stop-color="#00a3f7"/></radialGradient></defs><path d="M127.95,34.28L0,0l34.28,127.95C12.48,165.62,0,209.35,0,256s12.48,90.38,34.28,128.05L0,512l127.95-34.28c37.67,21.8,81.4,34.28,128.05,34.28s90.38-12.48,128.05-34.28l127.95,34.28-34.28-127.95c21.8-37.67,34.28-81.4,34.28-128.05s-12.48-90.38-34.28-128.05L512,0l-127.95,34.28C346.38,12.48,302.65,0,256,0s-90.38,12.48-128.05,34.28Z" fill="url(#b)"/><path d="M403.11,201.92v-12.12l-.07-2.21c-1.15-15.35-13.95-27.22-29.35-27.22h-110.63l-20.57-25.73-1.77-2.02c-5.55-5.77-13.21-9.03-21.21-9.03h-81.21l-2.21.07c-15.35,1.15-27.22,13.95-27.22,29.35v48.9h294.23Z" fill="#fff"/><path d="M108.89,253.47v105.51l.07,2.21c1.15,15.35,13.95,27.22,29.35,27.22h235.38l2.21-.07c15.35-1.15,27.22-13.95,27.22-29.35v-105.51H108.89Z" fill="#fff"/></svg>