<?xml version="1.0" encoding="UTF-8"?><svg id="a" xmlns="http://www.w3.org/2000/svg" width="512" height="512" xmlns:xlink="http://www.w3.org/1999/xlink" viewBox="0 0 512 512"><defs><radialGradient id="b" cx="256" cy="256" fx="256" fy="256" r="256" gradientTransform="translate(0 512) rotate(-90)" gradientUnits="userSpaceOnUse"><stop offset=".56" stop-color="#0077db"/><stop offset="1" stop-color="#00a3f7"/></radialGradient></defs><path d="M127.95,34.28L0,0l34.28,127.95C12.48,165.62,0,209.35,0,256s12.48,90.38,34.28,128.05L0,512l127.95-34.28c37.67,21.8,81.4,34.28,128.05,34.28s90.38-12.48,128.05-34.28l127.95,34.28-34.28-127.95c21.8-37.67,34.28-81.4,34.28-128.05s-12.48-90.38-34.28-128.05L512,0l-127.95,34.28C346.38,12.48,302.65,0,256,0s-90.38,12.48-128.05,34.28Z" fill="url(#b)"/><path d="M374.86,278.75c6.09-6.09,9.29-13.78,9.29-22.75s-3.2-16.66-9.29-22.75c-6.09-6.09-13.78-9.29-22.75-9.29h-192.22c-8.97,0-16.66,3.2-22.75,9.29s-9.29,13.78-9.29,22.75,3.2,16.66,9.29,22.75,13.78,9.29,22.75,9.29h192.22c8.97,0,16.66-3.2,22.75-9.29Z" fill="#fff"/><path d="M159.89,320.07c-8.97,0-16.66,3.2-22.75,9.29s-9.29,13.78-9.29,22.75,3.2,16.66,9.29,22.75,13.78,9.29,22.75,9.29h64.07c8.97,0,16.66-3.2,22.75-9.29s9.29-13.78,9.29-22.75-3.2-16.66-9.29-22.75-13.78-9.29-22.75-9.29h-64.07Z" fill="#fff"/><path d="M374.86,137.14c-6.09-6.09-13.78-9.29-22.75-9.29h-192.22c-8.97,0-16.66,3.2-22.75,9.29s-9.29,13.78-9.29,22.75,3.2,16.66,9.29,22.75,13.78,9.29,22.75,9.29h192.22c8.97,0,16.66-3.2,22.75-9.29,6.09-6.09,9.29-13.78,9.29-22.75s-3.2-16.66-9.29-22.75Z" fill="#fff"/></svg>