<?xml version="1.0" encoding="UTF-8"?><svg id="a" xmlns="http://www.w3.org/2000/svg" width="512" height="512" xmlns:xlink="http://www.w3.org/1999/xlink" viewBox="0 0 512 512"><defs><radialGradient id="b" cx="256" cy="256" fx="256" fy="256" r="256" gradientTransform="translate(0 512) rotate(-90)" gradientUnits="userSpaceOnUse"><stop offset=".56" stop-color="#0077db"/><stop offset="1" stop-color="#00a3f7"/></radialGradient></defs><path d="M127.95,34.28L0,0l34.28,127.95C12.48,165.62,0,209.35,0,256s12.48,90.38,34.28,128.05L0,512l127.95-34.28c37.67,21.8,81.4,34.28,128.05,34.28s90.38-12.48,128.05-34.28l127.95,34.28-34.28-127.95c21.8-37.67,34.28-81.4,34.28-128.05s-12.48-90.38-34.28-128.05L512,0l-127.95,34.28C346.38,12.48,302.65,0,256,0s-90.38,12.48-128.05,34.28Z" fill="url(#b)"/><path d="M214.12,364.5c-7.6,0-14.79-2.99-20.78-8.66l-73.68-73.67c-5.92-5.92-8.76-13.16-8.44-21.53.02-7.58,2.95-14.35,8.95-20.7l.08-.08c5.54-5.54,13-8.59,21.01-8.59s15.47,3.05,21.01,8.59l51.87,52.42,136.2-136.2c5.54-5.54,12.95-8.59,20.86-8.59s15.32,3.05,20.86,8.59l.08.08c5.74,6.08,8.66,13.17,8.66,21.07s-2.91,14.99-8.66,21.07l-157.24,157.53c-6,5.66-13.18,8.66-20.78,8.66Z" fill="#fff"/><path d="M371.2,151.5c6.54,0,13.09,2.47,18.03,7.42,4.94,5.24,7.56,11.34,7.56,18.33h0c0,6.98-2.62,13.09-7.56,18.33l-157.08,157.37c-5.24,4.94-11.34,7.56-18.03,7.56s-12.8-2.62-18.03-7.56l-73.59-73.59c-5.24-5.24-7.56-11.34-7.27-18.62,0-6.98,2.91-12.8,7.85-18.03,4.94-4.94,11.56-7.42,18.18-7.42s13.24,2.47,18.18,7.42l54.69,55.27,139.04-139.04c4.95-4.95,11.49-7.42,18.03-7.42M371.2,143.5c-8.98,0-17.4,3.47-23.69,9.76l-133.36,133.36-49.03-49.55c-6.32-6.32-14.79-9.79-23.87-9.79s-17.54,3.47-23.84,9.76l-.08.08-.08.08c-6.62,7.01-9.99,14.87-10.04,23.37-.34,9.49,2.89,17.71,9.61,24.44l73.59,73.59.08.08.08.08c6.75,6.38,14.89,9.75,23.53,9.75s16.78-3.37,23.53-9.75l.09-.08.08-.08,157.08-157.37.08-.08.08-.08c6.47-6.85,9.75-14.86,9.75-23.82s-3.28-16.97-9.75-23.82l-.08-.08-.08-.08c-6.29-6.29-14.71-9.76-23.69-9.76h0Z" fill="#fff"/></svg>