<svg xmlns="http://www.w3.org/2000/svg" viewBox="0 0 135 135" width="50" height="50">
  <defs>
    <linearGradient id="gradient" x1="0" y1="67.5" x2="135" y2="67.5" gradientUnits="userSpaceOnUse">
      <stop offset="0" stop-color="#2aadf4" />
      <stop offset="1" stop-color="#1976d7" />
      <animateTransform
        attributeName="gradientTransform"
        type="rotate"
        from="0 70 70"
        to="360 70 70"
        dur="3s"
        repeatCount="indefinite" />
    </linearGradient>
  </defs>
  <path fill="url(#gradient)" d="M67.9,135c-.1,0-.2,0-.4,0C30.2,135,0,104.8,0,67.5S30.2,0,67.5,0s.2,0,.4,0C39.8,9.5,19.5,36.1,19.5,67.5s20.3,58,48.4,67.5ZM84.5,53.8c0,1.7.6,3,1.8,4.1,1.2,1,2.7,1.5,4.5,1.5s2-.2,3.2-.5c1.3-.4,2.5-1.3,3.9-2.9,1.3-1.6,2-3.7,2-6.2h0c0-3.2-1.4-5.9-3.9-7.8-2.4-1.9-5.4-2.8-8.7-2.8-5,0-9.4,2.4-13,7.1-1.3-1.9-3-3.5-5.3-4.8-2.6-1.5-5.5-2.3-8.7-2.3-6.1,0-11.4,2.5-15.6,7.1-4.1,4.6-6.5,8.7-7.2,12.2h0c0,.8.3,1.4,1,2l.2.2h2.1c1.6-.1,2-.2,2.2-.3.7-.2,1-1,1.1-1.7,1.2-3.9,3.2-7.2,6.1-9.7,2.9-2.5,6-3.7,9.2-3.7s2.8.4,4,1.3c1.1.8,1.7,2.2,1.7,4.3s-.2,2.5-.6,4.6c-.2.8-.9,3.5-2.1,8-1.2,4.5-2.4,9-3.6,13.2-1.2,4.1-2.2,6.9-2.9,8.1-2.1,3.5-4.5,5.2-7.4,5.2h0c-.7,0-1.4,0-2.1-.3-.5-.2-.9-.3-1.3-.5.2,0,.3-.1.5-.2,1.1-.5,2.1-1.3,3.2-2.6,1.2-1.3,1.7-3,1.7-4.8,0-2.7-1.1-5.9-6.3-5.9s-4.6.9-6.3,2.7c-1.8,1.8-2.7,4.1-2.7,6.9h0c0,2.6,1.1,5,3,7.2,2,2.3,5.2,3.4,9.6,3.4h.8c4.5,0,8.6-2.4,12.1-7,3.2,4.8,7.9,7.1,13.8,7.1s10.3-1.9,14.4-5.6c4.1-3.7,6.8-7.9,8.3-12.7h0c.3-1.4.3-1.5.3-1.6,0-.6-.3-1.7-2.7-1.7h-.6c-1.6.1-2,.2-2.2.3-.5.2-.9.7-1.3,1.8h0c-1.1,3.8-3.1,7-6.1,9.6-3,2.6-6,3.9-9,3.9s-2.8-.4-4.1-1.3c-1.2-.8-1.8-2.2-1.8-4.3,0-2.9,2.6-13.5,7.7-31.3,1.5-3.8,3.8-6.4,6.8-7.6.3,0,.9-.2,2.2-.2h0c1.6,0,2.8.2,3.7.7-3.8,1.6-5.7,4.2-5.7,7.9ZM67.9,0c28.2,9.5,48.4,36.1,48.4,67.5s-20.2,58-48.4,67.5c37.1-.2,67.1-30.4,67.1-67.5S105,.2,67.9,0Z" />
</svg>