<svg xmlns="http://www.w3.org/2000/svg" viewBox="0 0 24 24">
  <path d="M4.21,19.09h10c.28,0,.52.1.71.29s.29.43.29.71-.1.52-.29.71c-.19.19-.43.29-.71.29H4.21c-.28,0-.52-.1-.71-.29-.19-.19-.29-.43-.29-.71s.1-.52.29-.71.43-.29.71-.29ZM7.44,14.82l-2.83-2.83c-.38-.38-.58-.85-.59-1.41s.18-1.03.56-1.41l.73-.73,5.7,5.65-.73.73c-.38.38-.86.58-1.43.58s-1.04-.19-1.43-.58ZM15.21,9.89l-5.65-5.7.73-.73c.38-.38.85-.57,1.41-.56.56,0,1.03.2,1.41.59l2.83,2.83c.38.38.58.86.58,1.43s-.19,1.04-.58,1.43l-.73.73ZM19.11,19.39L6.76,7.04l1.4-1.4,12.35,12.35c.18.18.28.42.28.7s-.09.52-.28.7-.42.28-.7.28-.52-.09-.7-.28Z"/>
</svg>